<?xml version="1.0" standalone="no"?>
<!DOCTYPE svg PUBLIC "-//W3C//DTD SVG 20010904//EN"
 "http://www.w3.org/TR/2001/REC-SVG-20010904/DTD/svg10.dtd">
<svg version="1.0" xmlns="http://www.w3.org/2000/svg"
 width="700.000000pt" height="700.000000pt" viewBox="0 0 700.000000 700.000000"
 preserveAspectRatio="xMidYMid meet">
<metadata>
Created by potrace 1.11, written by Peter Selinger 2001-2013
</metadata>
<g transform="translate(0.000000,700.000000) scale(0.100000,-0.100000)"
fill="#000000" stroke="none">
<path d="M2739 6996 c-2 -2 -32 -7 -67 -10 -271 -28 -566 -139 -813 -304 -209
-141 -382 -318 -528 -542 -101 -155 -222 -447 -247 -600 -3 -14 -9 -50 -15
-80 -5 -30 -13 -82 -17 -115 -10 -81 -9 -3578 1 -3684 31 -339 179 -697 401
-971 249 -307 606 -537 981 -631 227 -57 251 -58 1105 -55 426 1 784 5 795 8
11 3 42 9 68 12 301 44 661 211 899 416 334 288 542 648 626 1085 l27 140 0
1825 c0 1938 1 1873 -47 2080 -61 260 -178 504 -346 719 -73 94 -201 226 -277
286 -27 22 -52 43 -55 46 -3 4 -50 36 -105 72 -184 120 -378 204 -578 252
-221 53 -228 53 -1043 54 -419 0 -763 -1 -765 -3z m1377 -801 c237 -46 425
-188 529 -400 71 -142 78 -180 81 -420 2 -247 -7 -307 -70 -440 -39 -83 -108
-180 -162 -230 -41 -38 -74 -65 -79 -65 -2 0 -24 -14 -49 -30 -39 -27 -151
-75 -198 -86 -10 -2 -28 -7 -40 -11 -13 -4 -286 -8 -608 -9 -624 -3 -646 -1
-770 47 -239 94 -404 290 -466 554 -12 49 -14 415 -3 475 43 234 190 437 391
542 55 29 191 74 243 81 17 2 278 4 580 5 428 0 566 -2 621 -13z m399 -2184
c93 -14 163 -37 252 -81 202 -103 355 -295 416 -524 22 -80 22 -91 22 -981 0
-839 -1 -905 -18 -969 -75 -281 -284 -503 -551 -585 -94 -29 -148 -35 -310
-36 l-139 0 1 225 c0 124 1 241 1 260 l1 35 117 -1 c165 0 221 16 291 85 22
22 50 61 63 88 l24 48 0 860 0 860 -24 53 c-32 70 -103 134 -176 156 -51 17
-124 18 -983 17 -510 0 -934 -2 -942 -4 -104 -24 -173 -75 -218 -161 l-27 -51
0 -865 0 -865 25 -50 c34 -70 100 -129 170 -152 44 -14 86 -19 179 -18 l121 0
1 -110 c1 -225 -2 -398 -6 -405 -3 -5 -76 -7 -162 -5 -175 3 -267 22 -382 75
-236 111 -423 356 -458 602 -5 29 -8 449 -8 933 0 877 0 880 22 963 62 233
218 425 427 526 149 72 185 78 486 85 382 9 1714 3 1785 -8z m-1170 -1231
l160 -160 162 162 163 163 132 -133 133 -132 -163 -162 -162 -163 162 -162
163 -163 -133 -132 -132 -133 -163 163 -162 162 -163 -162 -162 -163 -132 133
-132 133 162 162 162 162 -162 162 -162 162 130 130 c71 72 131 131 134 131 3
0 77 -72 165 -160z"/>
</g>
</svg>
