<svg width="566" height="101" viewBox="0 0 566 101" fill="none" xmlns="http://www.w3.org/2000/svg">
<path d="M2.86644 1.04789H23.2811C23.5607 1.04789 25.7514 6.38707 29.8529 17.0654C30.1792 17.4851 34.4672 28.0235 42.7169 48.6808H47.9604V1.04789H65.7883V57.7737H67.8158V79.8765H60.6147V84.1431H67.8158V97.2929H41.039V80.5759H36.2849C29.8529 64.9081 25.5183 54.0899 23.2811 48.1212V31.2643H20.7642V82.6043H16.7092V100.301H0V62.1803H3.00627V61.9704C2.91305 29.0494 2.86644 8.7419 2.86644 1.04789ZM32.9291 48.6808V52.3879H44.0453C43.1597 49.9165 42.6004 48.6808 42.3674 48.6808H32.9291ZM48.1003 48.6808V52.3879H44.1851C46.5622 58.3099 47.9837 62.1803 48.4498 63.9988H48.5897V63.5092C48.2634 57.4473 48.1003 53.7402 48.1003 52.3879H56.2102V48.6808H48.1003ZM41.039 99.1115H73.4088V101H41.039V99.1115Z" fill="white"/>
<path d="M162.112 0.768111H180.988C181.175 0.814741 181.268 0.931317 181.268 1.11784V49.7999C181.268 50.0331 181.175 50.1496 180.988 50.1496H178.751V100.65C178.751 100.883 178.634 101 178.401 101H162.112C161.879 101 161.762 100.883 161.762 100.65V48.9606H156.728C156.495 48.9606 156.379 48.844 156.379 48.6108V46.4425C156.425 46.2094 156.542 46.0928 156.728 46.0928H161.762V1.11784C161.809 0.884687 161.925 0.768111 162.112 0.768111ZM161.902 46.0928V48.9606H171.55V46.0928H161.902Z" fill="white"/>
<path d="M218.392 1.04789C229.485 1.04789 236.919 4.61511 240.694 11.7496C243.304 17.1587 244.609 22.4512 244.609 27.6272H244.469C236.872 28.28 231.675 28.6064 228.879 28.6064C228.879 24.9226 227.737 21.8217 225.453 19.3037C223.309 18.0913 221.328 17.4851 219.51 17.4851H216.714C211.96 17.4851 209.07 19.327 208.045 23.0108C207.811 24.0833 207.695 24.9226 207.695 25.5288V26.9977C207.695 32.2203 210.445 35.9973 215.945 38.3288C216.411 38.7485 220.233 40.4972 227.41 43.5748C231.232 45.3467 234.775 47.5383 238.037 50.1496V50.2895H220.489V52.248H243.63V55.0458H246.567V85.4022H240.834V101H196.369V85.4022H185.882V74.9103H191.825V71.2732H185.882V68.8251H206.227V85.4022H227.061V60.4316H211.47V52.248H192.104V50.2895H201.473V50.1496C193.27 44.6939 189.168 36.9766 189.168 26.9977V25.6687C189.168 17.3219 191.731 10.9802 196.858 6.64353C201.519 2.91311 208.697 1.04789 218.392 1.04789ZM243.63 50.2895H250.692V52.248H243.63V50.2895ZM179.17 71.2732H185.882V74.9103H179.17V71.2732Z" fill="white"/>
<path d="M258.382 1.46757H307.391V17.7649C307.391 17.998 307.275 18.1146 307.042 18.1146H277.958V39.6578H304.035V39.8676C304.035 40.4738 303.942 43.9944 303.756 50.4294C303.616 50.4294 303.546 50.476 303.546 50.5693H304.734V55.6054H282.152V76.0295H276.07V78.0579H282.152V84.283H307.741V86.5912H305.713V98.8317H275.091V101H260.549V65.3278H258.382V52.7376H242.442V50.5693H258.382V1.46757ZM258.522 50.5693V52.7376H266.702V50.5693H258.522Z" fill="white"/>
<path d="M315.361 0.558275H335.287V41.7562H331.371V84.283H361.084V93.2361H355.212V95.2645H361.084V101H341.858V99.4612H315.501C315.408 98.3421 315.361 97.5027 315.361 96.9432V74.4907H320.395V71.483H315.361V0.558275ZM361.084 93.2361H368.355V95.2645H361.084V93.2361Z" fill="white"/>
<path d="M375.277 1.46757H424.286V17.7649C424.286 17.998 424.169 18.1146 423.936 18.1146H394.853V39.6578H420.93V39.8676C420.93 40.4738 420.837 43.9944 420.651 50.4294C420.511 50.4294 420.441 50.476 420.441 50.5693H421.629V55.6054H399.047V76.0295H392.965V78.0579H399.047V84.283H424.636V86.5912H422.608V98.8317H391.986V101H377.444V65.3278H375.277V52.7376H359.337V50.5693H375.277V1.46757ZM375.417 50.5693V52.7376H383.597V50.5693H375.417Z" fill="white"/>
<path d="M466.304 1.04789C477.397 1.04789 484.831 4.61511 488.606 11.7496C491.216 17.1587 492.521 22.4512 492.521 27.6272H492.381C484.784 28.28 479.587 28.6064 476.791 28.6064C476.791 24.9226 475.649 21.8217 473.365 19.3037C471.221 18.0913 469.24 17.4851 467.422 17.4851H464.626C459.872 17.4851 456.982 19.327 455.957 23.0108C455.724 24.0833 455.607 24.9226 455.607 25.5288V26.9977C455.607 32.2203 458.357 35.9973 463.857 38.3288C464.323 38.7485 468.145 40.4972 475.323 43.5748C479.145 45.3467 482.687 47.5383 485.949 50.1496V50.2895H468.401V52.248H491.542V55.0458H494.479V85.4022H488.746V101H444.281V85.4022H433.794V74.9103H439.737V71.2732H433.794V68.8251H454.139V85.4022H474.973V60.4316H459.382V52.248H440.016V50.2895H449.385V50.1496C441.182 44.6939 437.08 36.9766 437.08 26.9977V25.6687C437.08 17.3219 439.644 10.9802 444.771 6.64353C449.431 2.91311 456.609 1.04789 466.304 1.04789ZM491.542 50.2895H498.604V52.248H491.542V50.2895ZM427.083 71.2732H433.794V74.9103H427.083V71.2732Z" fill="white"/>
<path d="M533.7 1.04789C544.793 1.04789 552.227 4.61511 556.002 11.7496C558.612 17.1587 559.918 22.4512 559.918 27.6272H559.778C552.18 28.28 546.984 28.6064 544.187 28.6064C544.187 24.9226 543.045 21.8217 540.761 19.3037C538.617 18.0913 536.636 17.4851 534.819 17.4851H532.022C527.268 17.4851 524.378 19.327 523.353 23.0108C523.12 24.0833 523.003 24.9226 523.003 25.5288V26.9977C523.003 32.2203 525.753 35.9973 531.253 38.3288C531.719 38.7485 535.541 40.4972 542.719 43.5748C546.541 45.3467 550.083 47.5383 553.346 50.1496V50.2895H535.797V52.248H558.939V55.0458H561.875V85.4022H556.142V101H511.677V85.4022H501.19V74.9103H507.133V71.2732H501.19V68.8251H521.535V85.4022H542.369V60.4316H526.779V52.248H507.413V50.2895H516.781V50.1496C508.578 44.6939 504.476 36.9766 504.476 26.9977V25.6687C504.476 17.3219 507.04 10.9802 512.167 6.64353C516.828 2.91311 524.005 1.04789 533.7 1.04789ZM558.939 50.2895H566V52.248H558.939V50.2895ZM494.479 71.2732H501.19V74.9103H494.479V71.2732Z" fill="white"/>
<path fill-rule="evenodd" clip-rule="evenodd" d="M104.166 0C90.0018 0 78.5193 11.4623 78.5193 25.6018V74.7381C78.5193 88.8776 90.0018 100.34 104.166 100.34H123.474C137.638 100.34 149.121 88.8776 149.121 74.7381V25.6018C149.121 11.4623 137.638 0 123.474 0H104.166ZM106.544 11.348C100.814 11.348 96.1696 15.9844 96.1696 21.7037V25.4799C96.1696 31.1992 100.814 35.8357 106.544 35.8357H121.096C126.826 35.8357 131.47 31.1992 131.47 25.4799V21.7037C131.47 15.9844 126.826 11.348 121.096 11.348H106.544ZM110.097 66.5946L105.444 71.2402L109.251 75.0412L113.905 70.3956L118.559 75.0412L122.366 71.2402L117.713 66.5946L122.366 61.949L118.559 58.1481L113.905 62.7937L109.251 58.1481L105.444 61.949L110.097 66.5946ZM100.528 42.7042C94.3206 42.7042 89.289 47.727 89.289 53.9229V77.1759C89.289 83.3718 94.3206 88.3946 100.528 88.3946H103.948V80.9289H100.802C98.5742 80.9289 96.7679 79.1258 96.7679 76.9016V53.8986C96.7679 51.6744 98.5742 49.8713 100.802 49.8713H126.838C129.066 49.8713 130.872 51.6744 130.872 53.8986V76.9016C130.872 79.1258 129.066 80.9289 126.838 80.9289H123.692V88.3946H127.112C133.319 88.3946 138.351 83.3718 138.351 77.1759V53.9229C138.351 47.727 133.319 42.7042 127.112 42.7042H100.528Z" fill="white"/>
</svg>
